<?xml version="1.0" standalone="no"?>
<!DOCTYPE svg PUBLIC "-//W3C//DTD SVG 20010904//EN"
 "http://www.w3.org/TR/2001/REC-SVG-20010904/DTD/svg10.dtd">
<svg version="1.0" xmlns="http://www.w3.org/2000/svg"
 width="192.000000pt" height="192.000000pt" viewBox="0 0 192.000000 192.000000"
 preserveAspectRatio="xMidYMid meet">
<metadata>
Created by potrace 1.11, written by Peter Selinger 2001-2013
</metadata>
<g transform="translate(0.000000,192.000000) scale(0.100000,-0.100000)"
fill="#000000" stroke="none">
<path d="M325 1835 c-112 -29 -216 -133 -241 -241 -3 -16 -7 -297 -8 -624 -1
-438 1 -608 10 -643 31 -119 127 -216 244 -243 60 -14 1207 -12 1263 2 101 26
179 92 226 194 l25 55 1 605 c1 444 -2 618 -11 653 -31 119 -127 215 -244 243
-54 12 -1216 11 -1265 -1z"/>
</g>
</svg>
