<?xml version="1.0" encoding="utf-8"?>
<!-- Generator: Adobe Illustrator 15.1.0, SVG Export Plug-In . SVG Version: 6.00 Build 0)  -->
<!DOCTYPE svg PUBLIC "-//W3C//DTD SVG 1.1//EN" "http://www.w3.org/Graphics/SVG/1.1/DTD/svg11.dtd">
<svg version="1.1" id="レイヤー_1" xmlns="http://www.w3.org/2000/svg" xmlns:xlink="http://www.w3.org/1999/xlink" x="0px"
	 y="0px" width="300px" height="300px" viewBox="0 0 300 300" enable-background="new 0 0 300 300" xml:space="preserve">
<g>
	<g>
		<path fill="#444444" d="M44.034,265c0,0,20.318-140.907,29.328-140.907c9.011,0,29.326,140.907,29.326,140.907H44.034z"/>
	</g>
	<g>
		<path fill="#444444" d="M104.152,265c0,0,20.082-202.713,29.329-202.713c9.245,0,29.324,202.713,29.324,202.713H104.152z"/>
	</g>
	<g>
		<path fill="#444444" d="M164.271,265c0,0,18.935-109.263,29.326-109.263S222.923,265,222.923,265H164.271z"/>
	</g>
	<g>
		<path fill="#444444" d="M225.479,265c0,0,18.432-235.236,29.329-235.236c10.896,0,29.325,235.236,29.325,235.236H225.479z"/>
	</g>
	<g>
		<path fill="#444444" d="M17,282.618c-9.313,0-17-7.55-17-16.863V46.541c0-9.313,7.687-16.862,17-16.862s17,7.55,17,16.862v219.214
			C34,275.068,26.313,282.618,17,282.618z"/>
	</g>
	<g>
		<path fill="#444444" d="M283.854,283H16.863C7.549,283,0,275.313,0,266c0-9.312,7.549-17,16.863-17h266.991
			c9.313,0,16.863,7.688,16.863,17C300.717,275.313,293.167,283,283.854,283z"/>
	</g>
</g>
<g display="none">
	<g display="inline">
		
			<rect x="88.875" y="137.737" transform="matrix(0.7071 -0.7071 0.7071 0.7071 -61.5154 165.7469)" fill="#444444" width="160.885" height="38.784"/>
	</g>
	<g display="inline">
		
			<rect x="81.835" y="120.74" transform="matrix(0.7071 -0.7071 0.7071 0.7071 -87.7946 129.5077)" fill="#444444" width="61.203" height="99.987"/>
	</g>
	<g display="inline">
		<path fill="#444444" d="M285,254.108C285,273.931,268.932,290,249.109,290H46.891C27.069,290,11,273.931,11,254.108V51.892
			C11,32.069,27.069,16,46.891,16h202.219C268.932,16,285,32.069,285,51.892V254.108z M251,51.957c0-0.802-1.155-1.957-1.959-1.957
			H46.959C46.156,50,45,51.155,45,51.957v202.086c0,0.803,1.156,1.957,1.959,1.957h202.082c0.804,0,1.959-1.154,1.959-1.957V51.957z
			"/>
	</g>
</g>
<g display="none">
	<g display="inline">
		<path fill="#444444" d="M148.628,292.044c-30.033,0-59.116-9.705-83.487-28.138c-29.59-22.376-48.695-54.937-53.796-91.683
			c-5.1-36.747,4.414-73.279,26.791-102.87c22.377-29.592,54.94-48.697,91.687-53.798c36.752-5.101,73.28,4.415,102.872,26.794
			c7.122,5.387,8.529,15.529,3.143,22.654s-15.529,8.531-22.654,3.144c-22.698-17.167-50.729-24.465-78.913-20.554
			c-28.19,3.913-53.169,18.568-70.335,41.269c-17.165,22.699-24.464,50.725-20.552,78.913c3.913,28.188,18.569,53.167,41.269,70.333
			c22.699,17.165,50.721,24.464,78.914,20.553c28.188-3.911,53.167-18.568,70.333-41.269c19.526-25.819,26.229-58.663,18.385-90.114
			c-2.162-8.667,3.111-17.443,11.779-19.605c8.669-2.157,17.444,3.111,19.603,11.779c10.223,40.986,1.485,83.795-23.969,117.452
			c-22.378,29.592-54.938,48.694-91.685,53.796C161.53,291.599,155.058,292.044,148.628,292.044z"/>
	</g>
	<g display="inline">
		<polygon fill="#444444" points="230.796,14.485 246.82,74.904 184.319,75.943 		"/>
	</g>
	<g display="inline">
		<path fill="#444444" d="M187.55,219.077c-3.253,0-6.517-1.173-9.105-3.547l-41.189-37.78c-5.485-5.03-5.853-13.557-0.821-19.042
			s13.557-5.852,19.041-0.821l41.188,37.78c5.487,5.033,5.854,13.558,0.821,19.043C194.829,217.606,191.195,219.077,187.55,219.077z
			"/>
	</g>
	<g display="inline">
		<path fill="#444444" d="M146,174.076c-5.583,0-10-4.525-10-10.108V77.714c0-5.582,4.417-10.107,10-10.107
			c5.582,0,10,4.525,10,10.107v86.254C156,169.551,151.582,174.076,146,174.076z"/>
	</g>
</g>
</svg>
